{"title":"The Muppets[2011]ENG[BRRip]XviD-{RedDragon}","uid":7086031,"size":787839038,"categoryP":"video","categoryS":"movies","magnet":"?xt=urn:btih:03ad068bd8cae22cd0402a22b030c7f08e4d4752&amp;dn=The+Muppets%5B2011%5DENG%5BBRRip%5DXviD-%7BRedDragon%7D&amp;tr=udp%3A%2F%2Ftracker.openbittorrent.com%3A80&amp;tr=udp%3A%2F%2Fopen.demonii.com%3A1337&amp;tr=udp%3A%2F%2Ftracker.coppersurfer.tk%3A6969&amp;tr=udp%3A%2F%2Fexodus.desync.com%3A6969","seeders":0,"leechers":0,"uploader":"RedDr4gon","files":11,"time":1331186992,"description":"Plot.\n\nWhen 3 muppet fans learn that Tex Richman wants to drill under the muppet theater for oil Gary, Mary and Walter set out to find the muppets who have been split up for years so that they can put on one last show and save the muppet theater. Kermit now lives in his own mansion depressed in Hollywood, Gonzo is a high class plumber at Gonzo's Royal Flush, Fozzie performs with a tribute band called The Moopets , Miss Piggy is the plus-size fashion editor at Vogue Paris, and Animal is at a celebrity anger management rehab center in Santa Barbara\n\n\nGeneral.\n\nComplete name                    : The Muppets[2011]ENG[BRRip]XviD-{RedDragon}.avi\nFormat                           : .avi\nFormat profile                   : Base Media / Version 2\nCodec ID                         : mp42\nFile size                        : 751 MiB\nDuration                         : 1h 42mn\nOverall bit rate                 : 1 023 Kbps\nEncoded date                     : UTC 2012-03-08 03:45:38\nIMDB Link                           : http://www.imdb.com/title/tt1204342/\nIMDB Rating                       : 7.7/10\n\n\nVideo.\n\nID                               : 1\nFormat                           : AVC\nFormat/Info                      : Advanced Video Codec\nFormat profile                   : &lt;a class=&quot;__cf_email__&quot; href=&quot;/cdn-cgi/l/email-protection&quot; data-cfemail=&quot;92dff3fbfcd2dea1bca2&quot;&gt;[email&amp;#160;protected]&lt;/a&gt;&lt;script cf-hash='f9e31' type=&quot;text/javascript&quot;&gt;\n/* &lt;![CDATA[ */!function(){try{var t=&quot;currentScript&quot;in document?document.currentScript:function(){for(var t=document.getElementsByTagName(&quot;script&quot;),e=t.length;e--;)if(t[e].getAttribute(&quot;cf-hash&quot;))return t[e]}();if(t&amp;&amp;t.previousSibling){var e,r,n,i,c=t.previousSibling,a=c.getAttribute(&quot;data-cfemail&quot;);if(a){for(e=&quot;&quot;,r=parseInt(a.substr(0,2),16),n=2;a.length-n;n+=2)i=parseInt(a.substr(n,2),16)^r,e+=String.fromCharCode(i);e=document.createTextNode(e),c.parentNode.replaceChild(e,c)}}}catch(u){}}();/* ]]&gt; */&lt;/script&gt;\nFormat settings, CABAC           : Yes\nFormat settings, ReFrames        : 4 frames\nCodec ID                         : avc1\nCodec ID/Info                    : Advanced Video Coding\nDuration                         : 1h 42mn\nBit rate mode                    : Variable\nBit rate                         : 857 Kbps\nWidth                            : 640 pixels\nHeight                           : 352 pixels\nDisplay aspect ratio             : 16:9\nFrame rate mode                  : Variable\nFrame rate                       : 23.976 fps\nMinimum frame rate               : 23.974 fps\nMaximum frame rate               : 48.754 fps\nColor space                      : YUV\nChroma subsampling               : 4:2:0\nBit depth                        : 8 bits\nScan type                        : Progressive\nBits/(Pixel*Frame)               : 0.159\nStream size                      : 630 MiB (84%)\nWriting library                  : x264 core 112\n\n\nAudio.\n\nID                               : 2\nFormat                           : AAC\nFormat/Info                      : Advanced Audio Codec\nFormat version                   : Version 4\nFormat profile                   : LC\nFormat settings, SBR             : No\nCodec ID                         : 40\nDuration                         : 1h 42mn\nBit rate mode                    : Variable\nBit rate                         : 160 Kbps\nMaximum bit rate                 : 201 Kbps\nChannel(s)                       : 2 channels\nChannel positions                : Front: L R\nSampling rate                    : 48.0 KHz\nStream size                      : 117 MiB (16%)\nEncoded date                     : UTC 2012-03-08 03:45:38\nTagged date                      : UTC 2012-03-08 04:34:44","torrent":{"xt":"urn:btih:03ad068bd8cae22cd0402a22b030c7f08e4d4752","amp;dn":"The+Muppets%5B2011%5DENG%5BBRRip%5DXviD-%7BRedDragon%7D","amp;tr":["udp%3A%2F%2Ftracker.openbittorrent.com%3A80","udp%3A%2F%2Fopen.demonii.com%3A1337","udp%3A%2F%2Ftracker.coppersurfer.tk%3A6969","udp%3A%2F%2Fexodus.desync.com%3A6969"],"infoHash":"03ad068bd8cae22cd0402a22b030c7f08e4d4752","infoHashBuffer":{"type":"Buffer","data":[3,173,6,139,216,202,226,44,208,64,42,34,176,48,199,240,142,77,71,82]},"announce":[],"urlList":[]}}